<svg xmlns="http://www.w3.org/2000/svg" viewBox="0 0 32 32">
  <path d="M10 2v24a1 1 0 0 0 1 1h7V2H10Z" fill="#2d8a4e" opacity="0.18"/>
  <path d="M17 2h7a3 3 0 0 1 3 3v4a3 3 0 0 1-3 3h-7" stroke="#2d8a4e" stroke-width="2.5" stroke-linecap="round" stroke-linejoin="round" fill="none"/>
  <path d="M17 2v26" stroke="#2d8a4e" stroke-width="2.5" stroke-linecap="round" fill="none"/>
  <line x1="17" y1="15" x2="27" y2="15" stroke="#2d8a4e" stroke-width="2.5" stroke-linecap="round" opacity="0.3"/>
  <path d="M17 15h8a3 3 0 0 1 3 3v4a3 3 0 0 1-3 3h-8" stroke="#2d8a4e" stroke-width="2.5" stroke-linecap="round" stroke-linejoin="round" fill="none"/>
  <path d="m30 4 2 2-2 2-2-2 2-2Z" fill="#2d8a4e" opacity="0.6"/>
</svg>
